<?xml version="1.0" encoding="utf-8"?>
<!-- Generator: Adobe Illustrator 28.2.0, SVG Export Plug-In . SVG Version: 6.00 Build 0)  -->
<svg version="1.1" id="Layer_1" xmlns="http://www.w3.org/2000/svg" xmlns:xlink="http://www.w3.org/1999/xlink" x="0px" y="0px"
	 viewBox="0 0 2250 648" style="enable-background:new 0 0 2250 648;" xml:space="preserve">
<style type="text/css">
	.st0{fill:#2E2E2E;}
	.st1{fill:#1BB6CC;}
	.st2{fill:#19B5CB;}
</style>
<g>
	<rect x="1115.83" y="364.66" class="st0" width="41.39" height="41.3"/>
	<rect x="2024.45" y="240.76" class="st0" width="144.55" height="41.3"/>
	<rect x="1962.5" y="364.66" class="st0" width="165.2" height="41.3"/>
	<rect x="2003.8" y="116.86" class="st0" width="165.2" height="41.3"/>
	<rect x="1962.5" y="116.86" class="st0" width="41.3" height="165.2"/>
	<rect x="2127.7" y="282.06" class="st0" width="41.3" height="123.9"/>
	<rect x="1714.69" y="364.66" class="st0" width="165.2" height="41.3"/>
	<rect x="1879.8" y="282.06" class="st0" width="41.39" height="123.9"/>
	<rect x="1755.9" y="240.76" class="st0" width="165.3" height="41.3"/>
	<rect x="1838.5" y="199.46" class="st0" width="41.39" height="41.3"/>
	<rect x="1755.9" y="116.86" class="st0" width="41.39" height="41.3"/>
	<rect x="1714.69" y="116.86" class="st0" width="41.39" height="247.8"/>
	<rect x="1487.54" y="240.76" class="st0" width="123.9" height="41.3"/>
	<rect x="1528.84" y="116.86" class="st0" width="144.55" height="41.3"/>
	<rect x="1632" y="158.16" class="st0" width="41.39" height="247.8"/>
	<rect x="1198.44" y="116.86" class="st0" width="41.39" height="227.15"/>
	<rect x="1446.15" y="199.46" class="st0" width="41.39" height="206.5"/>
	<rect x="1198.34" y="364.66" class="st0" width="206.6" height="41.3"/>
	<g>
		<polygon class="st1" points="386.67,199.3 386.67,257.43 328.55,257.43 		"/>
	</g>
	<polygon class="st0" points="536.33,200 536.33,531.14 412.15,531.14 412.15,489.75 494.93,489.75 494.93,241.39 412.15,241.39 
		412.15,200 	"/>
	<polygon class="st0" points="660.51,200 660.51,241.39 619.11,241.39 619.11,406.96 577.72,406.96 577.72,200 	"/>
	<polygon class="st0" points="453.54,365.57 453.54,406.96 329.36,406.96 329.36,282.78 370.75,282.78 370.75,365.57 	"/>
	<rect x="701.9" y="282.78" class="st0" width="41.39" height="124.18"/>
	<polygon class="st0" points="287.97,200 287.97,406.96 163.79,406.96 163.79,365.57 246.57,365.57 246.57,241.39 163.79,241.39 
		163.79,200 	"/>
	<polygon class="st0" points="205.18,282.78 205.18,324.18 122.39,324.18 122.39,406.96 81,406.96 81,282.78 	"/>
	<polygon class="st0" points="908.87,200 908.87,241.38 826.07,241.38 826.07,365.56 908.87,365.56 908.87,406.97 784.69,406.97 
		784.69,200 	"/>
	<polygon class="st0" points="1115.83,199.64 1115.83,241.04 1033.05,241.04 1033.05,116.86 1074.44,116.86 1074.44,199.64 	"/>
	<polygon class="st0" points="991.65,200 991.65,324.18 867.47,324.18 867.47,282.78 950.26,282.78 950.26,200 	"/>
	<rect x="1033.05" y="261.41" class="st0" width="41.39" height="145.2"/>
	<polygon class="st2" points="685.17,199.3 685.17,257.43 743.29,257.43 	"/>
	<polygon class="st2" points="1821.77,116.86 1821.77,174.98 1879.9,174.98 	"/>
	<polygon class="st2" points="1504.37,116.86 1504.37,174.98 1446.24,174.98 	"/>
</g>
</svg>
